<svg xmlns="http://www.w3.org/2000/svg" width="753.862" height="748.973" viewBox="0 0 753.862 748.973">
  <g id="Group_11" data-name="Group 11" transform="translate(-302.464 1065.709) rotate(-50)">
    <path id="Path_13" data-name="Path 13" d="M3095.926,1562.357l-32.726,103.7-133.8-62.032,53.68,134.138-95.055,63.357,141.925,25.7-88.957,96.069,147.938-20.841-16.918,131.341,110.719-122.069,122.809,84.846,7.758-113.1h134.848l-120.1-102.883,76.324-129.129-106.06,10.129-18.7-144.429-61.725,151.223-15.65-72.492-34.388,49.838Z" transform="translate(1706.979 3626.105) rotate(-131)" fill="#fff" stroke="#ff0093" stroke-width="6"/>
    <path id="Intersection_1" data-name="Intersection 1" d="M-4826.755,1303.55a10.043,10.043,0,0,1,1.356-.6l-6.271,12.207A10,10,0,0,1-4826.755,1303.55Zm-19.158-14.729a10,10,0,0,1,4.135-13.526,10,10,0,0,1,13.524,4.135,10,10,0,0,1-4.136,13.524,9.96,9.96,0,0,1-4.687,1.173A10,10,0,0,1-4845.913,1288.821Zm28.253-15.024a10,10,0,0,1,4.136-13.524,9.994,9.994,0,0,1,9.9.29l-9.116,17.745A9.958,9.958,0,0,1-4817.659,1273.8Zm-36.5-8.139-4.907-16.97a10.016,10.016,0,0,1,2.267-1.647,10,10,0,0,1,13.524,4.135,10,10,0,0,1-4.134,13.524,9.962,9.962,0,0,1-4.687,1.173A10.024,10.024,0,0,1-4854.161,1265.658Zm21.479-20.115a10,10,0,0,1,4.134-13.524,10,10,0,0,1,13.524,4.134,10,10,0,0,1-4.134,13.524,9.956,9.956,0,0,1-4.686,1.173A10,10,0,0,1-4832.682,1245.543Zm-35.359-27.887a10,10,0,0,1,9.741,5.266,10,10,0,0,1-4.134,13.524l-.15.078Zm63.613,12.864a10,10,0,0,1,4.136-13.524,10,10,0,0,1,13.524,4.135,9.952,9.952,0,0,1,1.167,4.349l-4.453,8.668q-.408.271-.85.506a9.959,9.959,0,0,1-4.687,1.173A10,10,0,0,1-4804.428,1230.52Zm143-3.715a10.007,10.007,0,0,1-.9-2.527l1.621,2.725ZM-4975,1208.973a10,10,0,0,1,1.89,2.509,10,10,0,0,1-4.134,13.524l-.076.04Zm127.294,8.315a10,10,0,0,1,4.135-13.524,10,10,0,0,1,13.524,4.135,10,10,0,0,1-4.135,13.523,9.959,9.959,0,0,1-4.687,1.173A10,10,0,0,1-4847.705,1217.288Zm144.076-2.039a10.065,10.065,0,0,1-1.012-1.544,10,10,0,0,1,4.134-13.524,10,10,0,0,1,13.524,4.134,10,10,0,0,1-4.134,13.524,10.108,10.108,0,0,1-1.148.522Zm-258.884-9.4a10,10,0,0,1,4.135-13.524,10,10,0,0,1,13.524,4.134,10,10,0,0,1-4.135,13.524,9.96,9.96,0,0,1-4.687,1.173A10,10,0,0,1-4962.514,1205.849Zm188.074-2.1-2.763,5.379A10.015,10.015,0,0,1-4774.44,1203.753Zm-45.01-1.487a10,10,0,0,1,4.134-13.524,10,10,0,0,1,13.524,4.134,10,10,0,0,1-4.134,13.524,9.96,9.96,0,0,1-4.687,1.173A10,10,0,0,1-4819.45,1202.266Zm74.613,1.7a9.958,9.958,0,0,1-3.082-3.491,10,10,0,0,1,4.136-13.524,10,10,0,0,1,13.524,4.135,10,10,0,0,1-4.135,13.523,9.97,9.97,0,0,1-3.919,1.143Zm-130.65-12.06a9.978,9.978,0,0,1,2.164,2.763,9.965,9.965,0,0,1,.786,7.44Zm-58.772-1.079a10,10,0,0,1,4.134-13.524,10,10,0,0,1,13.524,4.135,10,10,0,0,1-4.136,13.524,9.958,9.958,0,0,1-4.686,1.172A10,10,0,0,1-4934.259,1190.825Zm71.531-1.791a10,10,0,0,1,4.134-13.524,10,10,0,0,1,13.524,4.135,10,10,0,0,1-4.134,13.523,9.956,9.956,0,0,1-4.686,1.173A10,10,0,0,1-4862.728,1189.034Zm71.531-1.792a10,10,0,0,1,4.134-13.524,10,10,0,0,1,13.525,4.135,10,10,0,0,1-4.135,13.523,9.959,9.959,0,0,1-4.687,1.173A10,10,0,0,1-4791.2,1187.242Zm71.533-1.791a10,10,0,0,1,4.134-13.524,10,10,0,0,1,13.524,4.134,10,10,0,0,1-4.135,13.524,9.958,9.958,0,0,1-4.686,1.173A10,10,0,0,1-4719.664,1185.451Zm-251.527-2.864,2.841-19.682a9.992,9.992,0,0,1,8.471,5.3,10,10,0,0,1-4.134,13.524,9.963,9.963,0,0,1-4.687,1.173A10.03,10.03,0,0,1-4971.19,1182.587ZM-4906,1175.8a10,10,0,0,1,4.135-13.524,10,10,0,0,1,13.524,4.134,10,10,0,0,1-4.135,13.524,9.964,9.964,0,0,1-4.688,1.173A9.994,9.994,0,0,1-4906,1175.8Zm71.531-1.791a10,10,0,0,1,4.135-13.524,10,10,0,0,1,13.524,4.134,10,10,0,0,1-4.134,13.524,9.96,9.96,0,0,1-4.687,1.173A10,10,0,0,1-4834.474,1174.012Zm71.531-1.792a10,10,0,0,1,4.135-13.526,10,10,0,0,1,13.524,4.135,10,10,0,0,1-4.134,13.524,9.958,9.958,0,0,1-4.687,1.173A10,10,0,0,1-4762.942,1172.22Zm-186.34-9.648a10,10,0,0,1,4.135-13.524,10,10,0,0,1,13.523,4.135,10,10,0,0,1-4.134,13.524,9.957,9.957,0,0,1-4.685,1.172A10,10,0,0,1-4949.282,1162.572Zm71.531-1.792a10,10,0,0,1,4.135-13.524,10,10,0,0,1,13.524,4.135,10,10,0,0,1-4.136,13.524,9.958,9.958,0,0,1-4.686,1.172A10,10,0,0,1-4877.751,1160.779Zm71.532-1.791a10,10,0,0,1,4.134-13.524,10,10,0,0,1,13.524,4.135,10,10,0,0,1-4.134,13.523,9.96,9.96,0,0,1-4.687,1.173A10,10,0,0,1-4806.219,1158.988Zm71.531-1.792a10,10,0,0,1,4.134-13.524,10,10,0,0,1,13.524,4.135,10,10,0,0,1-4.134,13.523,9.958,9.958,0,0,1-4.687,1.173A10,10,0,0,1-4734.687,1157.2Zm-186.341-9.647a10,10,0,0,1,4.136-13.524,10,10,0,0,1,13.524,4.134,10,10,0,0,1-4.134,13.524,9.963,9.963,0,0,1-4.687,1.173A10,10,0,0,1-4921.029,1147.549Zm71.531-1.792a10,10,0,0,1,4.136-13.524,10,10,0,0,1,13.524,4.134,10,10,0,0,1-4.134,13.524,9.963,9.963,0,0,1-4.688,1.173A10,10,0,0,1-4849.5,1145.757Zm71.533-1.791a10,10,0,0,1,4.135-13.526,10,10,0,0,1,13.524,4.135,10,10,0,0,1-4.135,13.524,9.96,9.96,0,0,1-4.687,1.173A10,10,0,0,1-4777.965,1143.966Zm-186.275-9.526,1.721-11.92a9.988,9.988,0,0,1,2.349-1.727,10,10,0,0,1,13.524,4.134,10,10,0,0,1-4.135,13.524,9.958,9.958,0,0,1-4.686,1.173A10,10,0,0,1-4964.24,1134.44Zm71.466-1.915a10,10,0,0,1,4.134-13.524,10,10,0,0,1,13.524,4.135,10,10,0,0,1-4.134,13.524,9.96,9.96,0,0,1-4.685,1.172A10,10,0,0,1-4892.773,1132.526Zm71.531-1.792a10,10,0,0,1,4.135-13.524,10,10,0,0,1,13.523,4.135,10,10,0,0,1-4.134,13.524,9.957,9.957,0,0,1-4.686,1.172A10,10,0,0,1-4821.242,1130.733Zm71.532-1.791a10,10,0,0,1,4.134-13.524,10,10,0,0,1,13.524,4.134,10,10,0,0,1-4.136,13.524,9.956,9.956,0,0,1-4.686,1.173A10,10,0,0,1-4749.71,1128.942Zm-271.308-5.538a9.942,9.942,0,0,1,1.258,1.117l-2.286.256Zm84.965-4.11a10,10,0,0,1,4.137-13.524,10,10,0,0,1,13.523,4.134,10,10,0,0,1-4.134,13.524,9.961,9.961,0,0,1-4.687,1.173A10,10,0,0,1-4936.052,1119.294Zm-71.531,1.792a10,10,0,0,1,4.137-13.524,10,10,0,0,1,13.523,4.134,9.992,9.992,0,0,1-.051,9.487l-16.281,1.825A10.029,10.029,0,0,1-5007.583,1121.086Zm143.063-3.583a10,10,0,0,1,4.136-13.524,10,10,0,0,1,13.524,4.134,10,10,0,0,1-4.136,13.524,9.956,9.956,0,0,1-4.686,1.173A10,10,0,0,1-4864.52,1117.5Zm71.531-1.792a10,10,0,0,1,4.136-13.524,10,10,0,0,1,13.524,4.134,10,10,0,0,1-4.134,13.524,9.963,9.963,0,0,1-4.688,1.173A10,10,0,0,1-4792.989,1115.711Zm-329.4-6.063a10.082,10.082,0,0,1-.754-1.834l11.3-12.714a9.982,9.982,0,0,1,7.117,5.158,9.978,9.978,0,0,1,.52,8.242l-14.6,4.968A9.953,9.953,0,0,1-5122.392,1109.647Zm143.063-3.585a10,10,0,0,1,4.134-13.523,10,10,0,0,1,13.524,4.134,10,10,0,0,1-4.134,13.524,9.956,9.956,0,0,1-4.686,1.173A10,10,0,0,1-4979.329,1106.063Zm71.531-1.792a10,10,0,0,1,4.136-13.523,10,10,0,0,1,13.523,4.134,10,10,0,0,1-4.134,13.524,9.957,9.957,0,0,1-4.686,1.173A10,10,0,0,1-4907.8,1104.27Zm71.533-1.791a10,10,0,0,1,4.134-13.524,10,10,0,0,1,13.524,4.135,10,10,0,0,1-4.135,13.524,9.955,9.955,0,0,1-4.685,1.172A10,10,0,0,1-4836.265,1102.479Zm185.328,3.174a9.983,9.983,0,0,1,5.147-7.052,10,10,0,0,1,13.524,4.135,9.977,9.977,0,0,1,1.106,3.537Zm-113.8-4.967a10,10,0,0,1,4.134-13.524,10,10,0,0,1,13.524,4.135,10,10,0,0,1-4.134,13.524,9.961,9.961,0,0,1-4.686,1.172A10,10,0,0,1-4764.733,1100.687Zm71.531-1.791a10,10,0,0,1,4.135-13.524,10,10,0,0,1,13.524,4.134,10,10,0,0,1-4.136,13.524,9.956,9.956,0,0,1-4.686,1.173A10,10,0,0,1-4693.2,1098.9Zm-27.6,4.563a9.954,9.954,0,0,1,3.48-3.065,10,10,0,0,1,13.211,3.589Zm99.129-6.356a9.957,9.957,0,0,1-.995-6.56l13.046,11.333a9.933,9.933,0,0,1-3.214.534A10,10,0,0,1-4621.671,1097.1Zm-472.466-2.48A10,10,0,0,1-5090,1081.1a10,10,0,0,1,13.523,4.135,10,10,0,0,1-4.134,13.523,9.961,9.961,0,0,1-4.688,1.173A9.994,9.994,0,0,1-5094.137,1094.624Zm143.063-3.583a10,10,0,0,1,4.135-13.524,10,10,0,0,1,13.524,4.134,10,10,0,0,1-4.135,13.524,9.956,9.956,0,0,1-4.686,1.173A10,10,0,0,1-4951.075,1091.04Zm71.531-1.792a10,10,0,0,1,4.135-13.524,10,10,0,0,1,13.524,4.134,10,10,0,0,1-4.134,13.524,9.962,9.962,0,0,1-4.687,1.173A10,10,0,0,1-4879.543,1089.248Zm71.533-1.791a10,10,0,0,1,4.135-13.524,10,10,0,0,1,13.524,4.134,10,10,0,0,1-4.136,13.524,9.958,9.958,0,0,1-4.687,1.173A10,10,0,0,1-4808.011,1087.457Zm71.531-1.792a10,10,0,0,1,4.135-13.524,10,10,0,0,1,13.524,4.134,10,10,0,0,1-4.136,13.524,9.959,9.959,0,0,1-4.687,1.173A10,10,0,0,1-4736.479,1085.665Zm71.532-1.792a10,10,0,0,1,4.134-13.524,10,10,0,0,1,13.524,4.135,10,10,0,0,1-4.134,13.524,9.961,9.961,0,0,1-4.687,1.173A10,10,0,0,1-4664.947,1083.872Zm-400.936-4.271a10,10,0,0,1,4.135-13.524,10,10,0,0,1,13.524,4.134,10,10,0,0,1-4.135,13.524,9.956,9.956,0,0,1-4.686,1.173A10,10,0,0,1-5065.883,1079.6Zm75.835,2.431,11.809-15.775a10.021,10.021,0,0,1,1.546,2.161,10,10,0,0,1-4.135,13.524,9.962,9.962,0,0,1-4.687,1.173A10.043,10.043,0,0,1-4990.048,1082.033Zm67.228-6.016a10,10,0,0,1,4.134-13.523,10,10,0,0,1,13.524,4.134,10,10,0,0,1-4.134,13.524,9.959,9.959,0,0,1-4.685,1.172A10,10,0,0,1-4922.82,1076.017Zm71.531-1.792a10,10,0,0,1,4.134-13.523,10,10,0,0,1,13.524,4.134,10,10,0,0,1-4.134,13.524,9.954,9.954,0,0,1-4.686,1.173A10,10,0,0,1-4851.289,1074.224Zm-167.182,5.083a9.989,9.989,0,0,1,3.093-1.044l-3.141,1.069Zm238.714-6.874a10,10,0,0,1,4.134-13.524,10,10,0,0,1,13.524,4.135,10,10,0,0,1-4.135,13.523,9.958,9.958,0,0,1-4.686,1.173A10,10,0,0,1-4779.756,1072.433Zm71.531-1.792a10,10,0,0,1,4.134-13.524,10,10,0,0,1,13.524,4.135,10,10,0,0,1-4.135,13.524,9.959,9.959,0,0,1-4.685,1.172A10,10,0,0,1-4708.225,1070.641Zm-281.992-6.356a10,10,0,0,1,11.5,1.5l-16.67,5.674A9.987,9.987,0,0,1-4990.217,1064.285Zm-47.412.293a10,10,0,0,1,4.134-13.524,10,10,0,0,1,13.524,4.135,10,10,0,0,1-4.134,13.524,9.959,9.959,0,0,1-4.686,1.172A10,10,0,0,1-5037.628,1064.578Zm71.531-1.792a10,10,0,0,1,4.134-13.524,10,10,0,0,1,13.524,4.135,10,10,0,0,1-4.134,13.523,9.964,9.964,0,0,1-4.687,1.173A9.994,9.994,0,0,1-4966.1,1062.785Zm71.531-1.791a10,10,0,0,1,4.136-13.524,10,10,0,0,1,13.524,4.134,10,10,0,0,1-4.135,13.524,9.958,9.958,0,0,1-4.686,1.173A10,10,0,0,1-4894.566,1060.994Zm71.531-1.792a10,10,0,0,1,4.136-13.524,10,10,0,0,1,13.524,4.134,10,10,0,0,1-4.135,13.524,9.958,9.958,0,0,1-4.687,1.173A10,10,0,0,1-4823.035,1059.2Zm71.533-1.791a10,10,0,0,1,4.135-13.524,10,10,0,0,1,13.523,4.134,10,10,0,0,1-4.134,13.524,9.96,9.96,0,0,1-4.687,1.173A10,10,0,0,1-4751.5,1057.411Zm71.531-1.792a10,10,0,0,1,2.647-12.557l14.831,12.884a9.953,9.953,0,0,1-3.954,3.807,9.96,9.96,0,0,1-4.687,1.173A10,10,0,0,1-4679.971,1055.619Zm-396.717-.092,12.881-14.5a10.155,10.155,0,0,1,.56.928,10,10,0,0,1-4.136,13.523,9.959,9.959,0,0,1-4.687,1.173A10.043,10.043,0,0,1-5076.687,1055.526Zm67.313-5.971a10,10,0,0,1,4.134-13.524,10,10,0,0,1,13.524,4.134,10,10,0,0,1-4.134,13.524,9.958,9.958,0,0,1-4.686,1.173A10,10,0,0,1-5009.375,1049.555Zm71.531-1.792a10,10,0,0,1,4.135-13.524,10,10,0,0,1,13.524,4.134,10,10,0,0,1-4.135,13.524,9.958,9.958,0,0,1-4.686,1.173A10,10,0,0,1-4937.843,1047.763Zm71.533-1.792a10,10,0,0,1,4.134-13.523,10,10,0,0,1,13.524,4.134,10,10,0,0,1-4.134,13.524,9.962,9.962,0,0,1-4.686,1.172A10,10,0,0,1-4866.311,1045.971Zm71.531-1.792a10,10,0,0,1,4.134-13.523,10,10,0,0,1,13.524,4.134,10,10,0,0,1-4.134,13.524,9.96,9.96,0,0,1-4.686,1.172A10,10,0,0,1-4794.78,1044.178Zm71.531-1.791a10,10,0,0,1,4.136-13.524A10,10,0,0,1-4705.59,1033a10,10,0,0,1-4.134,13.523,9.956,9.956,0,0,1-4.686,1.173A10,10,0,0,1-4723.249,1042.387Zm-329.4-6.063a9.961,9.961,0,0,1-.952-6.778l6.563-7.386a10,10,0,0,1,12.048,4.774,10,10,0,0,1-4.135,13.524,9.963,9.963,0,0,1-4.687,1.173A10,10,0,0,1-5052.652,1036.324Zm71.531-1.792a10,10,0,0,1,4.135-13.524,10,10,0,0,1,13.524,4.135,10,10,0,0,1-4.134,13.523,9.96,9.96,0,0,1-4.687,1.173A10,10,0,0,1-4981.121,1034.531Zm71.531-1.792a10,10,0,0,1,4.135-13.524,10,10,0,0,1,13.524,4.135,10,10,0,0,1-4.134,13.523,9.961,9.961,0,0,1-4.687,1.173A10,10,0,0,1-4909.589,1032.739Zm71.532-1.791a10,10,0,0,1,4.136-13.524,10,10,0,0,1,13.523,4.134,10,10,0,0,1-4.134,13.524,9.96,9.96,0,0,1-4.687,1.173A10,10,0,0,1-4838.057,1030.948Zm71.531-1.792a10,10,0,0,1,4.136-13.524,10,10,0,0,1,13.524,4.134A10,10,0,0,1-4753,1033.29a9.958,9.958,0,0,1-4.687,1.173A10,10,0,0,1-4766.526,1029.156Zm71.942-1.088,4.25,3.692A9.946,9.946,0,0,1-4694.583,1028.068ZM-5024.4,1021.3a10,10,0,0,1,4.136-13.524,10,10,0,0,1,13.524,4.135,10,10,0,0,1-4.136,13.523,9.957,9.957,0,0,1-4.687,1.173A10,10,0,0,1-5024.4,1021.3Zm71.533-1.791a10,10,0,0,1,4.134-13.524,10,10,0,0,1,13.524,4.134,10,10,0,0,1-4.134,13.524,9.958,9.958,0,0,1-4.687,1.173A10,10,0,0,1-4952.866,1019.509Zm71.531-1.792a10,10,0,0,1,4.134-13.524,10,10,0,0,1,13.524,4.134,10,10,0,0,1-4.134,13.524,9.957,9.957,0,0,1-4.686,1.173A10,10,0,0,1-4881.334,1017.717Zm71.531-1.792a10,10,0,0,1,4.135-13.524,10,10,0,0,1,13.524,4.135,10,10,0,0,1-4.135,13.524,9.957,9.957,0,0,1-4.685,1.172A10,10,0,0,1-4809.8,1015.924Zm71.531-1.792a10,10,0,0,1,4.135-13.523,10,10,0,0,1,13.524,4.134,10,10,0,0,1-4.134,13.524,9.961,9.961,0,0,1-4.686,1.172A10,10,0,0,1-4738.272,1014.132Zm-257.873-7.854a10,10,0,0,1,4.137-13.526,10,10,0,0,1,13.523,4.135,10,10,0,0,1-4.134,13.524,9.962,9.962,0,0,1-4.687,1.173A10,10,0,0,1-4996.145,1006.278Zm71.533-1.792a10,10,0,0,1,4.135-13.524,10,10,0,0,1,13.524,4.134,10,10,0,0,1-4.135,13.524,9.96,9.96,0,0,1-4.687,1.173A10,10,0,0,1-4924.612,1004.485Zm71.531-1.792a10,10,0,0,1,4.135-13.524,10,10,0,0,1,13.524,4.135,10,10,0,0,1-4.134,13.523,9.962,9.962,0,0,1-4.687,1.173A10,10,0,0,1-4853.081,1002.693Zm71.532-1.791a10,10,0,0,1,4.136-13.524,10,10,0,0,1,13.523,4.134,10,10,0,0,1-4.134,13.524,9.96,9.96,0,0,1-4.687,1.173A10,10,0,0,1-4781.548,1000.9Zm71.531-1.792a10,10,0,0,1,4.136-13.524,10,10,0,0,1,13.523,4.134,10,10,0,0,1,.995,2.811l-15.35,10.221A9.958,9.958,0,0,1-4710.017,999.11Zm-329.4-6.063a10,10,0,0,1,4.134-13.524,10,10,0,0,1,13.524,4.134,10,10,0,0,1-4.134,13.524,9.955,9.955,0,0,1-4.686,1.173A10,10,0,0,1-5039.42,993.046Zm71.531-1.792a10,10,0,0,1,4.135-13.524,10,10,0,0,1,13.523,4.134,10,10,0,0,1-4.134,13.524,9.958,9.958,0,0,1-4.687,1.173A10,10,0,0,1-4967.889,991.254Zm71.532-1.791a10,10,0,0,1,4.134-13.524,10,10,0,0,1,13.524,4.134,10,10,0,0,1-4.136,13.524,9.956,9.956,0,0,1-4.686,1.173A10,10,0,0,1-4896.357,989.463Zm71.531-1.792a10,10,0,0,1,4.134-13.524,10,10,0,0,1,13.524,4.134A10,10,0,0,1-4811.3,991.8a9.958,9.958,0,0,1-4.686,1.173A10,10,0,0,1-4824.826,987.671Zm71.531-1.792a10,10,0,0,1,4.136-13.524,10,10,0,0,1,13.524,4.135,10,10,0,0,1-4.135,13.524,9.957,9.957,0,0,1-4.685,1.172A10,10,0,0,1-4753.294,985.878Zm71.531-1.792a10,10,0,0,1,4.135-13.524,10,10,0,0,1,13.4,3.9l-16.6,11.057A10.083,10.083,0,0,1-4681.763,984.086Zm-329.4-6.063a10,10,0,0,1,4.136-13.524,10,10,0,0,1,13.524,4.135,10,10,0,0,1-4.136,13.524,9.955,9.955,0,0,1-4.686,1.173A10,10,0,0,1-5011.167,978.023Zm71.531-1.792a10,10,0,0,1,4.136-13.524,10,10,0,0,1,13.524,4.135,10,10,0,0,1-4.134,13.524,9.961,9.961,0,0,1-4.687,1.173A10,10,0,0,1-4939.636,976.23Zm-140.157-9.168a10.1,10.1,0,0,1,1.23-.772,10,10,0,0,1,13.523,4.134,10,10,0,0,1-.48,10.2Zm211.689,7.377a10,10,0,0,1,4.135-13.524,10,10,0,0,1,13.524,4.134,10,10,0,0,1-4.135,13.524,9.963,9.963,0,0,1-4.687,1.173A10,10,0,0,1-4868.1,974.439Zm71.531-1.792a10,10,0,0,1,4.135-13.524,10,10,0,0,1,13.524,4.135,10,10,0,0,1-4.135,13.523,9.961,9.961,0,0,1-4.687,1.173A10,10,0,0,1-4796.572,972.647Zm71.531-1.791a10,10,0,0,1,4.135-13.524,10,10,0,0,1,13.524,4.134,10,10,0,0,1-4.134,13.524,9.96,9.96,0,0,1-4.687,1.173A10,10,0,0,1-4725.041,970.856Zm-329.4-6.065a10,10,0,0,1,4.136-13.524,10,10,0,0,1,13.524,4.135,10,10,0,0,1-4.135,13.524,9.959,9.959,0,0,1-4.686,1.172A10,10,0,0,1-5054.444,964.791Zm71.533-1.791a10,10,0,0,1,4.134-13.524,10,10,0,0,1,13.524,4.134,10,10,0,0,1-4.135,13.524,9.958,9.958,0,0,1-4.686,1.173A10,10,0,0,1-4982.912,963Zm333.539-7.462a10.006,10.006,0,0,1,11.419,1.426l-16.149,10.754A10.005,10.005,0,0,1-4649.373,955.538Zm-262.008,5.67a10,10,0,0,1,4.134-13.524,10,10,0,0,1,13.524,4.134,10,10,0,0,1-4.134,13.524,9.958,9.958,0,0,1-4.687,1.173A10,10,0,0,1-4911.38,961.208Zm71.532-1.792a10,10,0,0,1,4.134-13.523,10,10,0,0,1,13.524,4.134,10,10,0,0,1-4.136,13.524,9.954,9.954,0,0,1-4.686,1.173A10,10,0,0,1-4839.848,959.416Zm71.531-1.791a10,10,0,0,1,4.134-13.524,10,10,0,0,1,13.524,4.134,10,10,0,0,1-4.136,13.524,9.955,9.955,0,0,1-4.686,1.173A10,10,0,0,1-4768.317,957.625Zm71.531-1.792a10,10,0,0,1,4.134-13.524,10,10,0,0,1,13.524,4.135,10,10,0,0,1-4.134,13.524,9.958,9.958,0,0,1-4.685,1.172A10,10,0,0,1-4696.786,955.832Zm-393.906.871-7.937-7.543a10,10,0,0,1,5.042-11.123,10,10,0,0,1,13.524,4.134A10,10,0,0,1-5084.2,955.7a9.958,9.958,0,0,1-4.686,1.173A10,10,0,0,1-5090.691,956.7Zm64.5-6.934a10,10,0,0,1,4.135-13.524,10,10,0,0,1,13.524,4.134,10,10,0,0,1-4.134,13.524,9.961,9.961,0,0,1-4.687,1.173A10,10,0,0,1-5026.19,949.769Zm71.532-1.792a10,10,0,0,1,4.136-13.524A10,10,0,0,1-4937,938.588a10,10,0,0,1-4.136,13.524,9.957,9.957,0,0,1-4.686,1.173A10,10,0,0,1-4954.658,947.977Zm71.531-1.792a10,10,0,0,1,4.136-13.524,10,10,0,0,1,13.524,4.135,10,10,0,0,1-4.136,13.524,9.954,9.954,0,0,1-4.686,1.173A10,10,0,0,1-4883.127,946.184Zm71.533-1.791a10,10,0,0,1,4.134-13.524A10,10,0,0,1-4793.936,935a10,10,0,0,1-4.134,13.524,9.963,9.963,0,0,1-4.687,1.173A10,10,0,0,1-4811.594,944.393Zm190.476-3.878a9.98,9.98,0,0,1,8.5-.42l-13.8,9.192A10,10,0,0,1-4621.119,940.516Zm-118.944,2.085a9.99,9.99,0,0,1,.146-9.657l17.567.371a10,10,0,0,1-4.189,13.421,9.963,9.963,0,0,1-4.687,1.173A10,10,0,0,1-4740.063,942.6Zm71.533-1.792a9.951,9.951,0,0,1-1.028-6.381l19.779.417a10.007,10.007,0,0,1-5.228,10.1,9.958,9.958,0,0,1-4.687,1.173A10,10,0,0,1-4668.53,940.809Zm-400.937-4.271a9.982,9.982,0,0,1-.353-8.656l16.358-3.007a10.021,10.021,0,0,1,1.653,2.274,10,10,0,0,1-4.134,13.524,9.96,9.96,0,0,1-4.685,1.172A10,10,0,0,1-5069.467,936.538Zm71.531-1.792a10,10,0,0,1,4.134-13.524,10,10,0,0,1,13.524,4.135,10,10,0,0,1-4.134,13.524,9.959,9.959,0,0,1-4.686,1.172A10,10,0,0,1-4997.936,934.745Zm71.533-1.791a10,10,0,0,1,4.134-13.524,10,10,0,0,1,13.524,4.134,10,10,0,0,1-4.135,13.524,9.957,9.957,0,0,1-4.686,1.173A10,10,0,0,1-4926.4,932.954Zm71.531-1.792a10,10,0,0,1,4.134-13.524,10,10,0,0,1,13.524,4.134,10,10,0,0,1-4.135,13.524,9.959,9.959,0,0,1-4.687,1.173A10,10,0,0,1-4854.872,931.162Zm71.531-1.792a10,10,0,0,1,4.135-13.523,9.959,9.959,0,0,1,6.372-1.03l1.948,17.474,2.79.059a10.046,10.046,0,0,1-1.721,1.156,9.953,9.953,0,0,1-4.686,1.173A10,10,0,0,1-4783.34,929.37Zm-257.266-6.857,17.932-3.3a9.975,9.975,0,0,1-5.014,6.432,9.958,9.958,0,0,1-4.686,1.173A10.008,10.008,0,0,1-5040.606,922.512Zm70.925-2.79a10,10,0,0,1,.582-10.353l3.908-.718-.019-2.624a10,10,0,0,1,13.188,4.3,10,10,0,0,1-4.135,13.524,9.96,9.96,0,0,1-4.687,1.173A10,10,0,0,1-4969.682,919.723Zm71.533-1.792a10,10,0,0,1,4.135-13.524,10,10,0,0,1,13.523,4.135,10,10,0,0,1-4.134,13.524,9.961,9.961,0,0,1-4.686,1.172A10,10,0,0,1-4898.149,917.931Zm71.531-1.792a10,10,0,0,1,4.136-13.524,10,10,0,0,1,13.524,4.135,10,10,0,0,1-4.136,13.524,9.96,9.96,0,0,1-4.686,1.172A10,10,0,0,1-4826.618,916.138ZM-4941.427,904.7a10,10,0,0,1,4.134-13.524,10,10,0,0,1,13.524,4.135,10,10,0,0,1-4.134,13.524,9.961,9.961,0,0,1-4.686,1.172A10,10,0,0,1-4941.427,904.7Zm71.531-1.791a10,10,0,0,1,4.136-13.524,10,10,0,0,1,13.523,4.134,10,10,0,0,1-4.134,13.524,9.958,9.958,0,0,1-4.686,1.173A10,10,0,0,1-4869.9,902.908Zm71.533-1.792a10,10,0,0,1,4.134-13.524,10,10,0,0,1,13.524,4.134,10,10,0,0,1-4.135,13.524,9.958,9.958,0,0,1-4.686,1.173A10,10,0,0,1-4798.363,901.116Zm-114.81-11.439a10,10,0,0,1,4.136-13.524,10,10,0,0,1,13.524,4.134,10,10,0,0,1-4.135,13.524,9.958,9.958,0,0,1-4.686,1.173A10,10,0,0,1-4913.173,889.677Zm71.531-1.792a10,10,0,0,1,4.137-13.524,10,10,0,0,1,13.523,4.135,10,10,0,0,1-4.134,13.523,9.962,9.962,0,0,1-4.687,1.173A10,10,0,0,1-4841.642,887.884Zm-114.809-11.439a10,10,0,0,1,4.135-13.524,10,10,0,0,1,13.524,4.135,10,10,0,0,1-4.135,13.523,9.957,9.957,0,0,1-4.686,1.173A10,10,0,0,1-4956.45,876.445Zm71.532-1.792a10,10,0,0,1,4.134-13.524,10,10,0,0,1,13.524,4.135,10,10,0,0,1-4.134,13.523,9.962,9.962,0,0,1-4.687,1.173A10,10,0,0,1-4884.918,874.653Zm71.531-1.791a10,10,0,0,1,4.136-13.524,10,10,0,0,1,13.523,4.134A10,10,0,0,1-4799.862,877a9.956,9.956,0,0,1-4.686,1.173A10,10,0,0,1-4813.387,872.862ZM-4928.2,861.423a10,10,0,0,1,4.136-13.524,10,10,0,0,1,13.523,4.134,10,10,0,0,1-4.134,13.524,9.96,9.96,0,0,1-4.687,1.173A10,10,0,0,1-4928.2,861.423Zm71.531-1.792a10,10,0,0,1,4.136-13.524A10,10,0,0,1-4839,850.241a10,10,0,0,1-4.135,13.524,9.957,9.957,0,0,1-4.686,1.173A10,10,0,0,1-4856.664,859.631Zm71.531-1.792A10,10,0,0,1-4781,844.314c.1-.051.192-.1.289-.148l2.084,18.7A9.975,9.975,0,0,1-4785.133,857.838Zm-180.461-4.788-.138-19.067a10,10,0,0,1,11.917,4.818,10,10,0,0,1-4.134,13.524,9.959,9.959,0,0,1-4.686,1.172A10.036,10.036,0,0,1-4965.594,853.05Zm65.652-6.651a10,10,0,0,1,4.135-13.524q.371-.2.75-.36l12.5,14.375a9.954,9.954,0,0,1-3.857,3.644,9.958,9.958,0,0,1-4.686,1.173A10,10,0,0,1-4899.941,846.4Zm71.531-1.792a10,10,0,0,1,4.135-13.524,10,10,0,0,1,13.524,4.135,10,10,0,0,1-4.135,13.523,9.959,9.959,0,0,1-4.687,1.173A10,10,0,0,1-4828.41,844.607Zm-114.809-11.439a10,10,0,0,1,4.135-13.524,10,10,0,0,1,13.524,4.134,10,10,0,0,1-4.136,13.524,9.958,9.958,0,0,1-4.687,1.173A10,10,0,0,1-4943.219,833.168Zm143.063-3.583a10,10,0,0,1,4.136-13.526,10,10,0,0,1,12.46,2.528l1.2,10.737a9.956,9.956,0,0,1-4.269,4.394,9.96,9.96,0,0,1-4.687,1.173A10,10,0,0,1-4800.155,829.585Zm-114.809-11.44a9.983,9.983,0,0,1-.271-8.842l11.942,13.737a9.933,9.933,0,0,1-2.833.412A10,10,0,0,1-4914.964,818.144Zm78,3.232,12.353-9.334a9.993,9.993,0,0,1-5.3,8.445,9.958,9.958,0,0,1-4.686,1.173A10.023,10.023,0,0,1-4836.961,821.376Zm-121.28-16.462a10,10,0,0,1,4.135-13.524,10,10,0,0,1,13.523,4.134,10,10,0,0,1-4.134,13.524,9.963,9.963,0,0,1-4.687,1.173A10,10,0,0,1-4958.241,804.914Zm144.751-1.274,15.827-11.96q.073.129.144.26a10,10,0,0,1-4.134,13.524,9.959,9.959,0,0,1-4.687,1.173A10.027,10.027,0,0,1-4813.49,803.64Zm25.732-19.445.336-.254.195,1.748A9.983,9.983,0,0,1-4787.757,784.2Zm-178.352-2.372-.143-19.7a10,10,0,0,1,10.646,5.142,10,10,0,0,1-4.134,13.524,9.96,9.96,0,0,1-4.687,1.173A10.005,10.005,0,0,1-4966.109,781.823Z" transform="translate(5832.597 -962.423)" fill="#00e2ff"/>
    <path id="Path_17" data-name="Path 17" d="M3095.926,1562.357l-32.726,103.7-133.8-62.032,53.68,134.138-95.055,63.357,141.925,25.7-88.957,96.069,147.938-20.841-16.918,131.341,110.719-122.069,122.809,84.846,7.758-113.1h134.848l-120.1-102.883,76.324-129.129-106.06,10.129-18.7-144.429-61.725,151.223-15.65-72.492-34.388,49.838Z" transform="translate(1706.979 3626.105) rotate(-131)" fill="none" stroke="#ff0093" stroke-width="6"/>
  </g>
</svg>
