<svg width="122" height="24" viewBox="0 0 122 24" fill="none" xmlns="http://www.w3.org/2000/svg">
<path d="M46.4314 6.51282H50.6773V23.3905H46.4314V6.51282ZM21.0927 17.3483C17.9768 17.3483 16.0592 19.6436 12.0872 19.6436C7.80705 19.6436 4.28018 16.2006 4.28018 11.9474C4.28018 7.69425 7.80705 4.21746 12.0872 4.21746C16.3674 4.21746 19.8943 7.72801 19.8943 11.9474C19.8943 13.2639 19.6203 14.7153 19.0725 15.728C20.7503 15.3567 21.9488 15.2892 23.5924 15.728C23.969 14.5466 24.1745 13.2639 24.1745 11.9474C24.1745 5.36514 18.8328 -0.00195312 12.0872 -0.00195312C5.34166 -0.00195312 0 5.36514 0 11.9474C0 18.5297 5.41015 23.863 12.0872 23.863C16.8468 23.863 18.3877 21.6352 20.8873 21.6352C22.1542 21.6352 22.7706 22.6478 23.0102 23.998L27.085 23.0191C26.6398 19.5086 24.3799 17.3483 21.0927 17.3483ZM48.5544 -0.00195312C47.082 -0.00195312 45.9863 1.07822 45.9863 2.46218C45.9863 3.84615 47.082 4.92632 48.5544 4.92632C50.0267 4.92632 51.1225 3.84615 51.1225 2.46218C51.1225 1.07822 50.0267 -0.00195312 48.5544 -0.00195312ZM38.7955 15.8293C38.7955 18.1584 37.5971 19.8799 35.0632 19.8799C32.7006 19.8799 31.8788 18.3609 31.8788 15.9643V6.51282H27.5986V16.4031C27.5986 21.1964 29.8928 23.728 34.2072 23.728C35.9549 23.728 37.9642 23.0178 39.001 21.5663V23.3905H43.0415V6.51282H38.7955V15.8293ZM62.4564 19.8124C59.4774 19.8124 57.4571 17.7533 57.4571 14.9516C57.4571 12.1499 59.4774 10.0909 62.4564 10.0909C64.0657 10.0909 65.093 10.5297 66.2229 11.5086L68.7568 8.47062C66.8735 6.81661 64.6821 6.10775 62.2509 6.10775C56.9435 6.10775 53.1085 9.78708 53.1085 14.9516C53.1085 20.1162 56.9435 23.7955 62.2509 23.7955C64.6821 23.7955 67.1132 23.0867 68.9965 21.4326L66.5311 18.3947C65.3669 19.3736 64.0657 19.8124 62.4564 19.8124ZM114.435 6.17526C112.687 6.17526 110.678 6.88547 109.641 8.33695V6.51282H105.601V23.3905H109.847V14.074C109.847 11.7449 111.045 10.0234 113.579 10.0234C115.942 10.0234 116.763 11.5424 116.763 13.939V23.3905H121.043V13.5002C121.043 8.70691 118.749 6.17526 114.435 6.17526ZM103.169 14.5466C103.169 15.1542 103.169 16.0318 103.101 16.4706H90.3399C90.6522 18.4878 92.5971 20.0149 95.2597 20.0149C96.8348 20.0149 98.3756 19.5086 99.5056 18.5634L101.8 21.4326C99.8823 23.1542 97.5196 23.7955 95.1227 23.7955C89.918 23.7955 85.946 20.6225 85.946 14.9854C85.946 10.0234 89.5756 6.10775 94.6776 6.10775C99.5056 6.10775 103.169 9.71957 103.169 14.5466ZM90.3741 13.1964H98.9345C98.4976 11.1508 96.9512 9.78708 94.7118 9.78708C92.4724 9.78708 90.7658 11.1562 90.3741 13.1964ZM86.5281 6.51282H81.4946L74.9887 13.4786V0.369355H70.7428V23.3905H74.9887V18.8618L76.9076 16.7528L81.7686 23.3567L81.8028 23.3905H86.6308L79.736 13.8931L86.5281 6.51282Z" fill="#471CFF"/>
</svg>
